# xmcd
#
# Track frame offsets:
#	150
#	9577
#	25287
#	40087
#	56950
#	67880
#	82527
#	95145
#	106082
#	124635
#	136462
#	149457
#
# Disc length: 2297 seconds
#
# Revision: 0
# Processed by: cddbd v1.4PL0 Copyright (c) Steve Scherf et al.
# Submitted via: EasyCDDAExtractor 4.6.9.1
#
DISCID=9b08f70c
DTITLE=Kristin Scott Benson - Straight Paths
DYEAR=2002
DGENRE=Bluegrass
TTITLE0=The Hunt
TTITLE1=Foggy Mountain Rock
TTITLE2=Home Of The Red Fox
TTITLE3=That's An Irish Lullaby
TTITLE4=Just Because
TTITLE5=Creekstone
TTITLE6=Joe and Smokey
TTITLE7=Fireball Express
TTITLE8=Put Me On The Trail To Carolina
TTITLE9=Sally Ann
TTITLE10=The Woodchopper's Reel
TTITLE11=Straight Paths
EXTD=
EXTT0=
EXTT1=
EXTT2=
EXTT3=
EXTT4=
EXTT5=
EXTT6=
EXTT7=
EXTT8=
EXTT9=
EXTT10=
EXTT11=
PLAYORDER=
